<?xml version="1.0" encoding="iso-8859-1"?>
<!-- Generator: Adobe Illustrator 19.0.0, SVG Export Plug-In . SVG Version: 6.00 Build 0)  -->
<svg version="1.1" id="Capa_1" xmlns="http://www.w3.org/2000/svg" xmlns:xlink="http://www.w3.org/1999/xlink" x="0px" y="0px"
	 viewBox="0 0 369.262 369.262" style="enable-background:new 0 0 369.262 369.262;" xml:space="preserve">
<g id="XMLID_1133_">
	<path id="XMLID_1136_" style="fill:#D77258;" d="M294.017,369.262l19.789-199c0-17.547-14.235-31.777-31.774-31.777
		c-5.765,0-11.156,1.562-15.824,4.246c-2.77-14.715-15.676-25.848-31.207-25.848c-6.297,0-12.148,1.852-17.086,5.02
		c-4.617-11.86-16.117-20.266-29.59-20.266c-5.922,0-11.43,1.641-16.176,4.453V31.774C172.149,14.223,157.915,0,140.376,0
		c-17.551,0-31.77,14.223-31.77,31.774v143.359l-0.144-19.829c-11.641-13.121-31.723-14.305-44.844-2.656
		c-13.121,11.66-7.653,28.037-2.656,44.859c12.71,42.791,53.055,171.755,53.055,171.755H294.017z"/>
	<path id="XMLID_1137_" style="fill:#C1E8E6;" d="M228.431,266.324v28.307h-84.92v-28.307h27.914v-50.125
		c-1.18,1.57-3.017,3.178-5.504,4.815c-2.49,1.64-5.276,3.146-8.355,4.522c-3.081,1.376-6.226,2.49-9.436,3.341
		c-3.211,0.853-6.063,1.277-8.551,1.277V201.06c2.094,0,4.817-0.717,8.159-2.162c3.341-1.44,6.65-3.175,9.926-5.207
		c3.274-2.032,6.223-4.095,8.846-6.194c2.62-2.093,4.257-3.799,4.914-5.111h32.041v83.938H228.431z"/>
	<path id="XMLID_1141_" style="fill:#D14F4E;" d="M282.032,138.485c-5.765,0-11.156,1.562-15.824,4.246
		c-2.77-14.715-15.676-25.848-31.207-25.848c-6.297,0-12.148,1.852-17.086,5.02c-4.617-11.86-16.117-20.266-29.59-20.266
		c-1.467,0-2.908,0.102-4.319,0.296v267.329h110.011l19.789-199C313.806,152.715,299.571,138.485,282.032,138.485z"/>
	<polygon id="XMLID_1144_" style="fill:#8EC8F0;" points="203.466,266.324 203.466,182.386 184.005,182.386 184.005,294.631 
		228.431,294.631 228.431,266.324 	"/>
</g>
<g>
</g>
<g>
</g>
<g>
</g>
<g>
</g>
<g>
</g>
<g>
</g>
<g>
</g>
<g>
</g>
<g>
</g>
<g>
</g>
<g>
</g>
<g>
</g>
<g>
</g>
<g>
</g>
<g>
</g>
</svg>
