<?xml version="1.0" ?><!DOCTYPE svg  PUBLIC '-//W3C//DTD SVG 1.1//EN'  'http://www.w3.org/Graphics/SVG/1.1/DTD/svg11.dtd'><svg enable-background="new 0 0 24 24" height="24px" id="Layer_1" version="1.1" viewBox="0 0 24 24" width="24px" xml:space="preserve" xmlns="http://www.w3.org/2000/svg" xmlns:xlink="http://www.w3.org/1999/xlink"><g><g><g><g><path d="M13.1,23.5c-0.7,0-1.4-0.1-1.9-0.2c-1.5-0.3-2.2-1.2-2.5-2.8c-0.1-0.5-0.1-1-0.1-1.5l0-9.1l-1.1,0l0,12.9      c0,0.1-0.1,0.3-0.1,0.4S7.1,23.3,7,23.3H2.8c-0.3,0-0.5-0.2-0.5-0.5l0-16.3c0-0.1,0.1-0.3,0.1-0.4C2.6,6.1,2.7,6,2.8,6l0,0      l5.8,0l0-5c0-0.1,0.1-0.3,0.1-0.4S9,0.5,9.1,0.5l0,0l4.2,0c0.1,0,0.3,0.1,0.4,0.1c0.1,0.1,0.1,0.2,0.1,0.4l0,5h1.9      C15.8,6,16,6.1,16,6.2s0.1,0.2,0.1,0.4l0,2.9c0,0.3-0.2,0.5-0.5,0.5h-1.9l0,8.7c0,0.6,0.2,0.8,0.9,0.8c0.1,0,0.9,0,1,0      c0.2,0,0.3,0,0.4,0.1c0.1,0.1,0.2,0.2,0.2,0.4l0,2.9c0,0.3-0.2,0.5-0.4,0.5C14.9,23.4,14,23.5,13.1,23.5z M9.1,8.9      c0.1,0,0.3,0.1,0.4,0.1s0.1,0.2,0.1,0.4l0,9.6c0,0.5,0,0.9,0.1,1.4c0.1,1.2,0.6,1.7,1.7,1.9c1.1,0.2,2.6,0.2,3.9,0l0-1.9      c-0.2,0-0.5,0-0.6,0c-1.2,0-1.8-0.7-1.8-1.8l0-9.2c0-0.1,0.1-0.3,0.1-0.4C13,9,13.1,8.9,13.3,8.9h1.9l0-1.9h-1.9      C13.1,7,13,7,12.9,6.9s-0.1-0.2-0.1-0.4l0-5l-3.2,0l0,5c0,0.1-0.1,0.3-0.1,0.4S9.2,7,9.1,7l0,0L3.3,7l0,15.3h3.2l0-12.9      c0-0.1,0.1-0.3,0.1-0.4C6.7,9,6.9,8.9,7,8.9L9.1,8.9L9.1,8.9z M17.5,17.3c-0.3,0-0.5-0.2-0.5-0.5L16.5,5.6l0-4.6      c0-0.1,0.1-0.3,0.1-0.4s0.2-0.1,0.4-0.1h4.2c0.1,0,0.3,0.1,0.4,0.1c0.1,0.1,0.1,0.2,0.1,0.4l0,4.5l-0.6,11.3      c0,0.3-0.2,0.4-0.5,0.5C19.8,17.3,18.4,17.3,17.5,17.3C17.5,17.3,17.5,17.3,17.5,17.3z M17.5,1.5l0,4.1L18,16.3      c0.7,0,1.5,0,2.1,0l0.5-10.8l0-4H17.5z"/></g></g><g><path d="M21.2,23.3H17c-0.3,0-0.5-0.2-0.5-0.5v-4c0-0.3,0.2-0.5,0.5-0.5h4.2c0.3,0,0.5,0.2,0.5,0.5v4     C21.7,23.1,21.4,23.3,21.2,23.3z M17.5,22.3h3.2v-3h-3.2V22.3z"/></g><g><path d="M7,5.1H2.8C2.7,5.1,2.6,5,2.5,4.9C2.4,4.8,2.3,4.7,2.3,4.6l0-3.6c0-0.1,0.1-0.3,0.1-0.4c0.1-0.1,0.2-0.1,0.4-0.1     c1.2,0,2.9,0,4.1,0c0.1,0,0.3,0.1,0.4,0.1S7.5,0.9,7.5,1l0,3.6C7.5,4.9,7.2,5.1,7,5.1z M3.3,4.1h3.1l0-2.6c-1,0-2.2,0-3.1,0     L3.3,4.1z"/></g></g><g><path d="M5.6,9.9c-0.3,0-0.5-0.2-0.5-0.5c0-0.3,0.2-0.5,0.5-0.5l2.1,0l0,0c0.3,0,0.5,0.2,0.5,0.5c0,0.3-0.2,0.5-0.5,0.5L5.6,9.9    L5.6,9.9z"/></g><g><path d="M12,9.9c-0.3,0-0.5-0.2-0.5-0.5c0-0.3,0.2-0.5,0.5-0.5l2.1,0l0,0c0.3,0,0.5,0.2,0.5,0.5c0,0.3-0.2,0.5-0.5,0.5L12,9.9    L12,9.9z"/></g></g></svg>