<?xml version="1.0" ?><svg id="Layer_1" style="enable-background:new 0 0 96 96;" version="1.1" viewBox="0 0 96 96" xml:space="preserve" xmlns="http://www.w3.org/2000/svg" xmlns:xlink="http://www.w3.org/1999/xlink"><style type="text/css">
	.st0{fill-rule:evenodd;clip-rule:evenodd;fill:#5C6061;}
	.st1{fill-rule:evenodd;clip-rule:evenodd;fill:#5ABFC7;}
	.st2{fill-rule:evenodd;clip-rule:evenodd;fill:#0093CE;}
	.st3{fill-rule:evenodd;clip-rule:evenodd;fill:#2B2D2D;}
	.st4{fill-rule:evenodd;clip-rule:evenodd;fill:#C5A86C;}
	.st5{fill-rule:evenodd;clip-rule:evenodd;fill:#839A8F;}
	.st6{fill-rule:evenodd;clip-rule:evenodd;fill:#4CA3AB;}
	.st7{fill-rule:evenodd;clip-rule:evenodd;fill:#9EC645;}
	.st8{fill-rule:evenodd;clip-rule:evenodd;fill:#C8C475;}
	.st9{fill-rule:evenodd;clip-rule:evenodd;fill:#E5A456;}
	.st10{fill-rule:evenodd;clip-rule:evenodd;fill:#BB639E;}
	.st11{fill-rule:evenodd;clip-rule:evenodd;fill:#C18D63;}
	.st12{fill-rule:evenodd;clip-rule:evenodd;fill:#A1BBAE;}
	.st13{fill-rule:evenodd;clip-rule:evenodd;fill:#C3CACB;}
	.st14{fill-rule:evenodd;clip-rule:evenodd;fill:#E18882;}
	.st15{fill-rule:evenodd;clip-rule:evenodd;fill:#7F8272;}
	.st16{fill-rule:evenodd;clip-rule:evenodd;fill:#DB3D57;}
	.st17{fill-rule:evenodd;clip-rule:evenodd;fill:#EBC32E;}
</style><g id="XMLID_2_"><path class="st0" d="M22.8,0h48c2.2,0,4,1.8,4,4v88c0,2.2-1.8,4-4,4h-48c-2.2,0-4-1.8-4-4V4C18.8,1.8,20.6,0,22.8,0   L22.8,0z M22.8,12v72h48V12H22.8z" id="XMLID_28_"/><rect class="st1" height="52" id="XMLID_27_" width="48" x="22.8" y="12"/><rect class="st2" height="20" id="XMLID_26_" width="48" x="22.8" y="64"/><path class="st3" d="M40.8,4h12c1.1,0,2,0.9,2,2v0c0,1.1-0.9,2-2,2h-12c-1.1,0-2-0.9-2-2v0C38.8,4.9,39.7,4,40.8,4z   " id="XMLID_25_"/><path class="st3" d="M30.8,8c1.1,0,2-0.9,2-2c0-1.1-0.9-2-2-2c-1.1,0-2,0.9-2,2C28.8,7.1,29.7,8,30.8,8z" id="XMLID_24_"/><path class="st3" d="M42.8,88h8c1.1,0,2,0.9,2,2v0c0,1.1-0.9,2-2,2h-8c-1.1,0-2-0.9-2-2v0   C40.8,88.9,41.7,88,42.8,88z" id="XMLID_23_"/><path class="st4" d="M29.3,20h5c1.4,0,2.5,1.1,2.5,2.5v5c0,1.4-1.1,2.5-2.5,2.5h-5c-1.4,0-2.5-1.1-2.5-2.5v-5   C26.8,21.1,27.9,20,29.3,20z" id="XMLID_22_"/><path class="st5" d="M44.3,20h5c1.4,0,2.5,1.1,2.5,2.5v5c0,1.4-1.1,2.5-2.5,2.5h-5c-1.4,0-2.5-1.1-2.5-2.5v-5   C41.8,21.1,42.9,20,44.3,20z" id="XMLID_21_"/><path class="st6" d="M59.3,20h5c1.4,0,2.5,1.1,2.5,2.5v5c0,1.4-1.1,2.5-2.5,2.5h-5c-1.4,0-2.5-1.1-2.5-2.5v-5   C56.8,21.1,57.9,20,59.3,20z" id="XMLID_20_"/><path class="st7" d="M29.3,34h5c1.4,0,2.5,1.1,2.5,2.5v5c0,1.4-1.1,2.5-2.5,2.5h-5c-1.4,0-2.5-1.1-2.5-2.5v-5   C26.8,35.1,27.9,34,29.3,34z" id="XMLID_19_"/><path class="st8" d="M44.3,34h5c1.4,0,2.5,1.1,2.5,2.5v5c0,1.4-1.1,2.5-2.5,2.5h-5c-1.4,0-2.5-1.1-2.5-2.5v-5   C41.8,35.1,42.9,34,44.3,34z" id="XMLID_18_"/><path class="st9" d="M59.3,34h5c1.4,0,2.5,1.1,2.5,2.5v5c0,1.4-1.1,2.5-2.5,2.5h-5c-1.4,0-2.5-1.1-2.5-2.5v-5   C56.8,35.1,57.9,34,59.3,34z" id="XMLID_17_"/><path class="st4" d="M29.3,48h5c1.4,0,2.5,1.1,2.5,2.5v5c0,1.4-1.1,2.5-2.5,2.5h-5c-1.4,0-2.5-1.1-2.5-2.5v-5   C26.8,49.1,27.9,48,29.3,48z" id="XMLID_16_"/><path class="st10" d="M44.3,48h5c1.4,0,2.5,1.1,2.5,2.5v5c0,1.4-1.1,2.5-2.5,2.5h-5c-1.4,0-2.5-1.1-2.5-2.5v-5   C41.8,49.1,42.9,48,44.3,48z" id="XMLID_15_"/><path class="st11" d="M59.3,48h5c1.4,0,2.5,1.1,2.5,2.5v5c0,1.4-1.1,2.5-2.5,2.5h-5c-1.4,0-2.5-1.1-2.5-2.5v-5   C56.8,49.1,57.9,48,59.3,48z" id="XMLID_14_"/><path class="st12" d="M28.8,14h36c1.1,0,2,0.9,2,2v0c0,1.1-0.9,2-2,2h-36c-1.1,0-2-0.9-2-2v0   C26.8,14.9,27.7,14,28.8,14z" id="XMLID_13_"/><circle class="st13" cx="54.8" cy="64" id="XMLID_12_" r="2"/><circle class="st13" cx="46.8" cy="64" id="XMLID_11_" r="2"/><circle class="st3" cx="38.8" cy="64" id="XMLID_10_" r="2"/><path class="st7" d="M29.3,70h5c1.4,0,2.5,1.1,2.5,2.5v5c0,1.4-1.1,2.5-2.5,2.5h-5c-1.4,0-2.5-1.1-2.5-2.5v-5   C26.8,71.1,27.9,70,29.3,70z" id="XMLID_9_"/><path class="st14" d="M44.3,70h5c1.4,0,2.5,1.1,2.5,2.5v5c0,1.4-1.1,2.5-2.5,2.5h-5c-1.4,0-2.5-1.1-2.5-2.5v-5   C41.8,71.1,42.9,70,44.3,70z" id="XMLID_8_"/><path class="st12" d="M59.3,70h5c1.4,0,2.5,1.1,2.5,2.5v5c0,1.4-1.1,2.5-2.5,2.5h-5c-1.4,0-2.5-1.1-2.5-2.5v-5   C56.8,71.1,57.9,70,59.3,70z" id="XMLID_7_"/><path class="st15" d="M31.8,27c1.1,0,2-0.9,2-2c0-1.1-0.9-2-2-2c-1.1,0-2,0.9-2,2C29.8,26.1,30.7,27,31.8,27z" id="XMLID_6_"/><path class="st16" d="M44.8,51h4c1.1,0,2,0.9,2,2v0c0,1.1-0.9,2-2,2h-4c-1.1,0-2-0.9-2-2v0   C42.8,51.9,43.7,51,44.8,51z" id="XMLID_5_"/><path class="st17" d="M61.8,43c2.2,0,4-1.8,4-4c0-2.2-1.8-4-4-4c-2.2,0-4,1.8-4,4C57.8,41.2,59.6,43,61.8,43z" id="XMLID_4_"/><path class="st17" d="M31.8,77c1.1,0,2-0.9,2-2c0-1.1-0.9-2-2-2c-1.1,0-2,0.9-2,2C29.8,76.1,30.7,77,31.8,77z" id="XMLID_3_"/></g></svg>